<svg xmlns:xlink="http://www.w3.org/1999/xlink" xmlns="http://www.w3.org/2000/svg" width="220" height="32" viewBox="0 0 220 32">
						<path d="M219.238 10.94v15.2h-3.467V10.962l3.468-.022zm-1.718-2.144a1.97 1.97 0 0 1 0-3.936 1.968 1.968 0 0 1 0 3.936zm-14.49 4.16c1.008-1.355 2.735-2.473 4.83-2.473 3.456 0 4.907 1.97 4.907 5.78v9.876H209.3v-9.16c0-2.473-.718-3.42-2.517-3.31-1.75.11-3.203 1.874-3.203 4.475v7.994h-3.467v-9.16c0-2.473-.71-3.444-2.518-3.31-1.75.132-3.203 2.055-3.203 4.475v7.994h-3.468v-15.2h3.02s.14 1.51.2 2.05h.04c.837-1.31 2.313-2.507 4.487-2.507 2.255 0 3.656.836 4.36 2.473zm-15.107-2.016v15.2h-3.467V10.962l3.467-.022zm-1.718-2.144a1.97 1.97 0 1 1 0-3.938 1.97 1.97 0 0 1 0 3.938zm-17.14 2.144h3.667c.597 2.883 2.164 8.492 3.01 11.313h.063c.815-2.853 2.383-8.462 3.01-11.313h3.636c-1.13 4.324-3.46 11.99-4.725 15.2h-4.03c-1.263-3.183-3.532-10.875-4.63-15.2zm-9.788 9.715v5.484h-3.467V5.26l3.467-.4V16.99c1.918-1.63 3.742-3.762 5.033-6.05h3.68c-1.29 2.507-2.83 4.67-4.72 6.52l5.128 8.68h-3.9l-3.807-6.455c-.47.376-.974.69-1.413.97zm-16.975-10.01c1.507-.124 3.14-.16 4.72-.16 3.717 0 5.936 1.437 5.936 5.497V26.14h-3.118l-.155-1.52h-.04c-1.07 1.15-2.624 1.824-4.612 1.824-2.635 0-4.727-1.707-4.727-5.088 0-3.144 2.62-6.07 9.184-4.68v-.914c0-1.812-1.063-2.318-3.156-2.318-1.285 0-2.374.088-4.032.23v-3.03zm7.186 8.438c-2.78-.707-5.56.162-5.56 2.31 0 1.427.945 2.263 2.355 2.2 1.112-.05 2.335-.542 3.204-1.31v-3.2zM125.778 4.86h14.907V8.3h-5.558v17.84h-3.79V8.3h-5.557V4.86zm-8.08 6.08h3.003l.248 2.446h.03c.768-1.12 2.638-2.555 4.815-2.675v3.192c-3.172.62-4.628 2.723-4.628 4.63v7.606h-3.467V10.94zm-16.662 7.678v-.156c0-5.08 2.337-7.98 7.168-7.98 4.8 0 7.138 2.9 7.138 7.98v.156c0 5.08-2.338 7.978-7.138 7.978-4.83 0-7.168-2.898-7.168-7.978zm7.16-5.246c-2.455 0-3.59 1.666-3.59 5.145 0 3.48 1.135 5.115 3.59 5.115 2.454 0 3.557-1.63 3.557-5.115 0-3.485-1.103-5.145-3.558-5.145zm-15.928-6.59l3.468-.402v4.56h3.552v2.813h-3.552v6.99c0 2.65.814 2.967 2.187 2.967.46-.008.92-.07 1.365-.187v2.86c-.655.132-1.32.204-1.99.212-3.967 0-5.03-1.938-5.03-5.436V6.78zM81.295 20.655v5.484h-3.468V5.26l3.468-.4V16.99c1.918-1.63 3.742-3.762 5.032-6.05h3.68c-1.29 2.507-2.83 4.67-4.718 6.52l5.125 8.68h-3.9l-3.806-6.455c-.473.376-.976.69-1.416.97zm-20.34-2.037v-.156c0-5.08 2.336-7.98 7.167-7.98 4.8 0 7.137 2.9 7.137 7.98v.156c0 5.08-2.34 7.978-7.14 7.978-4.83 0-7.167-2.897-7.167-7.978h.002zm7.16-5.246c-2.456 0-3.59 1.666-3.59 5.145 0 3.48 1.134 5.115 3.59 5.115 2.454 0 3.556-1.63 3.556-5.115 0-3.485-1.1-5.145-3.555-5.145zM42.56 26.14V4.86h5.345c7.45 0 10.915 2.236 10.915 10.64s-3.466 10.64-10.915 10.64H42.56zM54.84 15.5c0-4.784-.972-7.2-6.105-7.2h-2.38v14.4h2.38c5.133 0 6.104-2.416 6.105-7.2zm-37.137 9.37c.768-1.885 2.93-4.52 5.135-5.88l4.882 8.077-5 3.633-5.017-5.83zm-7.212 5.82l-6.88-4.427c5.21-9.74 14.95-16.678 26.394-17.97L31.92 14.2c-9.434 1.857-17.307 8.084-21.43 16.49zm1.505-20.048L12.865.3h6.182l.785 9.354c-3.548 1.215-5.634 2.188-8.024 3.657a25.433 25.433 0 0 0-4.806 3.803L0 14.155l1.91-5.89 10.085 2.377z" fill-opacity="0.7" fill="#ABABAB"></path>
					</svg>