<svg xmlns:xlink="http://www.w3.org/1999/xlink" xmlns="http://www.w3.org/2000/svg" width="167" height="32" viewBox="0 0 167 32">
						<path d="M156.37 10.663c1.5-.125 3.13-.162 4.702-.162 3.705 0 5.914 1.434 5.914 5.48v10.125h-3.106l-.153-1.516h-.04c-1.066 1.145-2.614 1.815-4.597 1.815-2.625 0-4.712-1.7-4.712-5.07 0-3.133 2.614-6.05 9.154-4.662v-.913c0-1.806-1.06-2.31-3.146-2.31-1.28 0-2.365.086-4.018.228v-3.02l.002.005zm7.162 8.41c-2.77-.706-5.542.16-5.542 2.3 0 1.42.943 2.258 2.348 2.193 1.107-.05 2.328-.54 3.194-1.307v-3.19.002zm-11.568-8.117v15.15h-3.456v-15.13l3.456-.02zm-1.713-2.138a1.962 1.962 0 0 1-.088-3.923h.09a1.96 1.96 0 0 1 0 3.923zm-5.064-3.923v21.21h-3.457V5.295l3.456-.4zm-17.374 5.768c1.5-.125 3.13-.162 4.703-.162 3.705 0 5.916 1.434 5.916 5.48v10.125h-3.107l-.154-1.516h-.04c-1.067 1.145-2.614 1.815-4.597 1.815-2.625 0-4.71-1.7-4.71-5.07 0-3.133 2.612-6.05 9.15-4.662v-.913c0-1.806-1.06-2.31-3.144-2.31-1.28 0-2.368.086-4.02.228v-3.02.005zm7.163 8.41c-2.77-.706-5.54.16-5.54 2.3 0 1.42.94 2.258 2.35 2.193 1.106-.05 2.325-.54 3.19-1.307v-3.19.002zM116.7 10.955h2.99l.247 2.44h.03c.767-1.118 2.63-2.55 4.8-2.668v3.18c-3.16.62-4.61 2.715-4.61 4.618v7.58H116.7v-15.15zm-16.607 7.65v-.155c0-5.06 2.33-7.95 7.146-7.95 4.782 0 7.112 2.89 7.112 7.95v.157c0 5.062-2.33 7.95-7.113 7.95-4.817.002-7.147-2.887-7.147-7.95zm7.136-5.23c-2.446 0-3.575 1.66-3.575 5.13 0 3.47 1.13 5.1 3.574 5.1 2.446 0 3.544-1.626 3.544-5.1 0-3.472-1.098-5.13-3.545-5.13zM91.354 6.812l3.455-.4v4.546h3.54v2.804h-3.54v6.965c0 2.645.813 2.96 2.18 2.96.46-.01.916-.07 1.36-.187v2.852c-.614.133-1.44.21-1.982.21-3.954 0-5.013-1.93-5.013-5.417V6.81zm-10.54 11.72c.012 3.31 1.446 5.075 4.3 5.075 1.205 0 2.432-.15 3.544-.3v2.8a21.807 21.807 0 0 1-3.983.38c-4.257 0-7.46-2.345-7.472-7.956.013-5.61 3.215-7.954 7.472-7.954 1.554 0 3.068.195 3.98.38v2.798c-1.11-.15-2.337-.3-3.544-.3-2.853 0-4.287 1.766-4.297 5.075zm-20.064.077v-.156c0-5.06 2.33-7.95 7.147-7.95 4.783 0 7.113 2.89 7.113 7.95v.157c0 5.062-2.33 7.95-7.114 7.95-4.815.002-7.145-2.887-7.145-7.95zm7.14-5.23c-2.448 0-3.577 1.66-3.577 5.13 0 3.47 1.13 5.098 3.576 5.098 2.445 0 3.543-1.625 3.543-5.098s-1.098-5.13-3.544-5.13zM42.42 26.105V4.895h5.327c7.423 0 10.878 2.23 10.878 10.605 0 8.376-3.455 10.605-10.878 10.605H42.42zM54.657 15.5c0-4.77-.968-7.176-6.083-7.176h-2.37v14.35h2.37c5.115.002 6.083-2.406 6.083-7.174zm-37.012 9.34c.765-1.88 2.92-4.506 5.118-5.86l4.866 8.048-4.987 3.623-5-5.81h.002zm-7.188 5.8l-6.86-4.41c5.194-9.71 14.9-16.624 26.307-17.913l1.91 5.887c-9.402 1.853-17.25 8.06-21.357 16.437zm1.497-19.98L12.82.35h6.164l.783 9.322c-3.536 1.213-5.616 2.18-7.998 3.646a25.34 25.34 0 0 0-4.79 3.79L0 14.16l1.902-5.87 10.052 2.37z" fill-opacity="0.7" fill="#ABABAB"></path>
					</svg>