<svg xmlns:xlink="http://www.w3.org/1999/xlink" xmlns="http://www.w3.org/2000/svg" width="200" height="32" viewBox="0 0 200 32">
						<path d="M189.018 10.678h10.762v2.132L192.736 23H200v2.89h-11.387v-2.103l7.02-10.22h-6.615v-2.89zm-10.347 0h3.012l.244 2.448h.032c.767-1.12 2.638-2.557 4.817-2.677v3.197c-3.174.62-4.63 2.725-4.63 4.634v7.61h-3.47V10.68h-.004zM165 10.38c1.51-.123 3.145-.16 4.725-.16 3.72 0 5.94 1.44 5.94 5.504v10.163h-3.12l-.156-1.52h-.042c-1.07 1.152-2.625 1.826-4.615 1.826-2.635 0-4.73-1.708-4.73-5.09 0-3.148 2.624-6.078 9.19-4.684v-.917c0-1.814-1.062-2.32-3.156-2.32-1.286 0-2.376.087-4.035.23L165 10.38zm7.193 8.445c-2.782-.71-5.564.16-5.564 2.31 0 1.43.94 2.267 2.353 2.203 1.113-.05 2.338-.54 3.207-1.31v-3.2l.003-.003zm-18.93 1.572v5.49h-3.47V4.992l3.47-.402V16.73c1.92-1.63 3.745-3.763 5.035-6.052h3.683c-1.288 2.508-2.83 4.672-4.718 6.522l5.13 8.69h-3.9l-3.81-6.46c-.473.376-.976.69-1.416.97h-.002zm-19.452-2.07v-.063c0-4.68 2.275-8.047 6.984-8.047 4.367 0 6.394 2.524 6.394 7.83 0 .56-.04 1.332-.1 1.902h-9.64c.247 2.142 1.497 3.422 4.06 3.422 1.622 0 3.146-.15 4.56-.335v2.906c-1.59.25-2.935.398-4.65.398-4.99 0-7.61-2.495-7.61-8.016l.003.003zm3.585-.96h6.27c0-2.38-.624-4.26-2.963-4.26-2.43 0-3.24 2.006-3.303 4.26h-.005zM121.7 4.59h3.793v17.853h7.46v3.444H121.7V4.59zm-15.44 6.088h3.67c.596 2.884 2.164 8.5 3.01 11.322h.063c.815-2.854 2.384-8.47 3.01-11.323h3.64c-1.13 4.324-3.877 12.7-4.955 15.21s-2.63 6.76-8.344 5.994v-2.73c2.646.15 4.05-.843 4.92-2.81-1.344-3.18-3.916-11.34-5.014-15.667v.005zm-15.137 0h3.02s.14 1.51.202 2.052h.04c.837-1.31 2.594-2.51 4.718-2.51 3.588 0 5.37 1.91 5.37 5.786v9.883h-3.47v-9.165c0-2.473-.953-3.442-2.824-3.31-1.7.12-3.59 2.056-3.59 4.478v8h-3.47V10.678h.003zm-13.67-.296c1.508-.124 3.143-.162 4.722-.162 3.72 0 5.94 1.438 5.94 5.502v10.165h-3.12l-.155-1.52h-.04c-1.07 1.152-2.625 1.826-4.615 1.826-2.636 0-4.73-1.708-4.73-5.09 0-3.148 2.623-6.078 9.19-4.684v-.917c0-1.814-1.063-2.32-3.157-2.32-1.286 0-2.376.087-4.035.23v-3.03zm7.192 8.444c-2.782-.71-5.565.16-5.565 2.31 0 1.426.947 2.264 2.36 2.2 1.11-.05 2.336-.543 3.205-1.312v-3.2.002zM59.86 10.678h3.02s.14 1.51.203 2.052h.04c.838-1.31 2.594-2.51 4.718-2.51 3.59 0 5.37 1.91 5.37 5.786v9.883h-3.47v-9.165c0-2.473-.95-3.442-2.82-3.31-1.694.12-3.585 2.056-3.585 4.478v8h-3.47V10.678h-.005zM43.156 4.592h13.682v2.875L47.39 22.44h9.606v3.444h-14.4v-2.94l9.47-14.913h-8.91V4.59v.004zm-25.44 20.025c.77-1.886 2.934-4.523 5.14-5.885l4.887 8.084-5.005 3.632-5.02-5.835-.002.004zM10.5 30.443l-6.89-4.43C8.828 16.263 18.574 9.32 30.03 8.027l1.918 5.91c-9.44 1.86-17.32 8.092-21.446 16.505H10.5zm1.503-20.065l.87-10.35h6.19l.786 9.36c-3.556 1.218-5.64 2.19-8.037 3.662a25.43 25.43 0 0 0-4.81 3.804L0 13.894l1.91-5.892 10.093 2.376z" fill-opacity="0.7" fill="#ABABAB"></path>
					</svg>