<svg xmlns:xlink="http://www.w3.org/1999/xlink" xmlns="http://www.w3.org/2000/svg" width="182" height="32" viewBox="0 0 182 32">
						<path d="M168.354 18.587v-.062c0-4.675 2.275-8.04 6.98-8.04 4.364 0 6.39 2.523 6.39 7.82 0 .562-.04 1.337-.1 1.907h-9.632c.248 2.14 1.496 3.42 4.057 3.42 1.62 0 3.14-.152 4.55-.336V26.2c-1.586.248-2.93.396-4.645.396-4.988 0-7.605-2.493-7.605-8.01h.004zm3.584-.96h6.265c0-2.377-.623-4.255-2.96-4.255-2.43 0-3.24 2.003-3.305 4.255zm-12.702-6.687h3.003l.24 2.446h.03c.77-1.12 2.638-2.555 4.816-2.675v3.192c-3.17.62-4.627 2.723-4.627 4.63v7.606h-3.47V10.94h.006zm-16.66 7.678v-.156c0-5.08 2.337-7.98 7.168-7.98 4.8 0 7.136 2.9 7.136 7.98v.156c0 5.08-2.337 7.978-7.136 7.978-4.83 0-7.168-2.898-7.168-7.978zm7.16-5.246c-2.455 0-3.588 1.666-3.588 5.145 0 3.48 1.133 5.115 3.588 5.115 2.453 0 3.556-1.63 3.556-5.115 0-3.485-1.103-5.145-3.556-5.145zm-15.9-6.59l3.467-.402v4.56h3.553v2.813h-3.553v6.99c0 2.65.816 2.967 2.188 2.967.462-.01.92-.073 1.366-.19v2.86c-.616.134-1.447.213-1.99.213-3.967 0-5.03-1.937-5.03-5.435V6.782zm-9.5 0l3.467-.402v4.56h3.553v2.813h-3.553v6.99c0 2.65.816 2.967 2.188 2.967.462-.01.92-.073 1.366-.19v2.86c-.616.134-1.447.213-1.99.213-3.967 0-5.03-1.937-5.03-5.435V6.782zm-16.72 11.836v-.156c0-5.08 2.337-7.98 7.168-7.98 4.8 0 7.136 2.9 7.136 7.98v.156c0 5.08-2.337 7.978-7.136 7.978-4.83 0-7.168-2.898-7.168-7.978zm7.16-5.246c-2.456 0-3.59 1.666-3.59 5.145 0 3.48 1.134 5.115 3.59 5.115s3.556-1.63 3.556-5.115c0-3.485-1.1-5.145-3.557-5.145zM89.225 26.14V4.86h5.343c7.442 0 10.91 2.236 10.91 10.64s-3.468 10.64-10.915 10.64H89.22h.005zM101.5 15.5c0-4.784-.97-7.2-6.104-7.2h-2.38v14.4h2.38c5.133 0 6.104-2.416 6.104-7.2zm-29.226 3.118v-.156c0-5.08 2.337-7.98 7.167-7.98 4.8 0 7.137 2.9 7.137 7.98v.156c0 5.08-2.337 7.978-7.137 7.978-4.83 0-7.167-2.898-7.167-7.978zm7.16-5.246c-2.455 0-3.588 1.666-3.588 5.145 0 3.48 1.133 5.115 3.588 5.115s3.557-1.63 3.557-5.115c0-3.485-1.1-5.145-3.557-5.145zm-9.554-2.432v15.2h-3.467V10.962l3.467-.022zm-1.718-2.144a1.968 1.968 0 1 1 0-3.936 1.968 1.968 0 0 1 0 3.936zm-8.88-3.91V4.86h3.796v21.28h-3.795V12.19l-.005.02-5.624 13.93h-1.672L46.36 12.21l-.005-.02v13.95H42.56V4.86h3.795v.026l.005-.026h.48l5.98 14.793L58.8 4.86h.48l.004.026zM17.704 24.87c.768-1.885 2.93-4.52 5.135-5.88l4.88 8.077-5 3.633-5.02-5.83h.004zm-7.212 5.82L3.61 26.264c5.212-9.74 14.95-16.678 26.395-17.97L31.92 14.2c-9.434 1.856-17.307 8.084-21.43 16.49h.002zm1.504-20.048L12.864.3h6.183l.785 9.354c-3.548 1.215-5.634 2.188-8.024 3.657a25.373 25.373 0 0 0-4.806 3.807L0 14.155l1.91-5.89 10.084 2.376h.002z" fill-opacity="0.7" fill="#ABABAB"></path>
					</svg>